<svg width="512" height="512" viewBox="0 0 512 512" fill="none" xmlns="http://www.w3.org/2000/svg">
<g clip-path="url(#clip0)">
<path fill-rule="evenodd" clip-rule="evenodd" d="M256 320C291.346 320 320 291.346 320 256C320 220.654 291.346 192 256 192C220.654 192 192 220.654 192 256C192 291.346 220.654 320 256 320ZM336 256C336 300.183 300.183 336 256 336C211.817 336 176 300.183 176 256C176 211.817 211.817 176 256 176C300.183 176 336 211.817 336 256Z" fill="black"/>
<path fill-rule="evenodd" clip-rule="evenodd" d="M210.422 352H301.578C302.916 352 304 350.916 304 349.578C304 349.1 303.858 348.632 303.593 348.234L299.201 341.647C295.986 336.823 290.336 334.078 284.395 334.558C260.633 336.481 251.367 336.481 227.605 334.558C221.664 334.078 216.014 336.823 212.799 341.647L208.407 348.234C208.142 348.632 208 349.1 208 349.578C208 350.916 209.084 352 210.422 352ZM210.422 368H301.578C311.752 368 320 359.752 320 349.578C320 345.941 318.923 342.385 316.906 339.359L312.514 332.771C306.031 323.046 294.755 317.668 283.105 318.61C260.201 320.463 251.799 320.463 228.895 318.61C217.245 317.668 205.969 323.046 199.486 332.771L195.094 339.359C193.077 342.385 192 345.941 192 349.578C192 359.752 200.248 368 210.422 368Z" fill="black"/>
<path fill-rule="evenodd" clip-rule="evenodd" d="M256 112C260.418 112 264 115.582 264 120V152C264 156.418 260.418 160 256 160C251.582 160 248 156.418 248 152V120C248 115.582 251.582 112 256 112Z" fill="black"/>
<path fill-rule="evenodd" clip-rule="evenodd" d="M352 256C352 251.582 355.582 248 360 248H392C396.418 248 400 251.582 400 256C400 260.418 396.418 264 392 264H360C355.582 264 352 260.418 352 256Z" fill="black"/>
<path fill-rule="evenodd" clip-rule="evenodd" d="M112 256C112 251.582 115.582 248 120 248H152C156.418 248 160 251.582 160 256C160 260.418 156.418 264 152 264H120C115.582 264 112 260.418 112 256Z" fill="black"/>
<path fill-rule="evenodd" clip-rule="evenodd" d="M339.035 304.179C341.252 300.357 346.148 299.057 349.969 301.274L377.648 317.334C381.469 319.551 382.77 324.447 380.552 328.268C378.335 332.09 373.44 333.39 369.618 331.173L341.94 315.113C338.118 312.896 336.818 308 339.035 304.179Z" fill="black"/>
<path fill-rule="evenodd" clip-rule="evenodd" d="M131.448 183.732C133.665 179.91 138.561 178.61 142.382 180.827L170.06 196.887C173.882 199.104 175.182 204 172.965 207.821C170.748 211.643 165.852 212.943 162.031 210.726L134.352 194.666C130.531 192.449 129.23 187.553 131.448 183.732Z" fill="black"/>
<path fill-rule="evenodd" clip-rule="evenodd" d="M184 131.292C187.826 129.083 192.719 130.394 194.928 134.22L210.928 161.933C213.137 165.759 211.826 170.652 208 172.861C204.174 175.07 199.281 173.759 197.072 169.933L181.072 142.22C178.863 138.394 180.174 133.501 184 131.292Z" fill="black"/>
<path fill-rule="evenodd" clip-rule="evenodd" d="M328 131.292C331.826 133.501 333.137 138.394 330.928 142.22L314.928 169.933C312.719 173.759 307.826 175.07 304 172.861C300.174 170.652 298.863 165.759 301.072 161.933L317.072 134.22C319.281 130.394 324.174 129.083 328 131.292Z" fill="black"/>
<path fill-rule="evenodd" clip-rule="evenodd" d="M172.861 304C175.071 307.826 173.76 312.719 169.933 314.928L142.22 330.928C138.394 333.137 133.501 331.826 131.292 328C129.083 324.173 130.394 319.28 134.22 317.071L161.933 301.071C165.76 298.862 170.652 300.173 172.861 304Z" fill="black"/>
<path fill-rule="evenodd" clip-rule="evenodd" d="M380.707 184C382.917 187.826 381.606 192.719 377.779 194.928L350.066 210.928C346.24 213.137 341.347 211.826 339.138 208C336.929 204.173 338.24 199.28 342.066 197.071L369.779 181.071C373.606 178.862 378.498 180.173 380.707 184Z" fill="black"/>
</g>
<defs>
<clipPath id="clip0">
<rect width="512" height="512" fill="white"/>
</clipPath>
</defs>
</svg>
